<?xml version="1.0" standalone="no"?>
<!DOCTYPE svg PUBLIC "-//W3C//DTD SVG 20010904//EN"
 "http://www.w3.org/TR/2001/REC-SVG-20010904/DTD/svg10.dtd">
<svg version="1.0" xmlns="http://www.w3.org/2000/svg"
 width="1254.000000pt" height="1254.000000pt" viewBox="0 0 1254.000000 1254.000000"
 preserveAspectRatio="xMidYMid meet">
<metadata>
Created by potrace 1.16, written by Peter Selinger 2001-2019
</metadata>
<rect width="100%" height="100%" fill="#0a0a0a"/>
<g transform="translate(0.000000,1254.000000) scale(0.100000,-0.100000)"
fill="#ffffff" stroke="none">
<path d="M2960 7805 c0 -5 61 -133 200 -420 84 -174 428 -893 585 -1225 48
-102 135 -284 192 -405 58 -121 179 -380 270 -575 90 -195 172 -363 181 -374
41 -44 69 -50 262 -54 102 -1 219 1 259 5 l75 8 34 80 c19 44 69 159 112 255
131 293 201 451 242 544 21 49 47 107 57 130 96 210 394 872 429 951 24 55 88
199 142 320 191 427 330 743 330 749 0 3 -161 6 -357 6 l-358 -1 -72 -167
c-40 -92 -101 -234 -136 -317 -91 -211 -307 -710 -362 -835 -25 -58 -116 -268
-202 -467 -86 -200 -159 -363 -162 -363 -3 0 -44 87 -90 193 -46 105 -135 307
-196 447 -62 140 -137 311 -168 380 -71 162 -381 872 -445 1020 l-49 115 -387
3 c-212 1 -386 0 -386 -3z"/>
<path d="M6865 7788 c-76 -27 -99 -62 -195 -288 -15 -36 -61 -141 -103 -235
-41 -93 -118 -267 -170 -385 -52 -118 -103 -235 -115 -260 -11 -25 -90 -202
-175 -395 -349 -789 -512 -1158 -578 -1304 -37 -85 -66 -158 -64 -162 6 -8
2044 -12 2091 -3 l32 6 -28 61 c-242 536 -231 515 -275 540 -14 8 -148 14
-437 17 l-417 5 133 310 c208 486 462 1074 494 1144 35 77 20 96 138 -176 48
-109 104 -238 126 -288 22 -49 53 -119 68 -155 37 -86 97 -221 153 -345 117
-262 477 -1087 477 -1095 0 -26 52 -30 362 -30 178 0 328 4 334 8 13 8 -13 70
-256 607 -89 198 -201 446 -247 550 -47 105 -113 253 -148 330 -35 77 -92 205
-128 285 -116 260 -198 442 -287 640 -48 107 -123 273 -166 369 -43 96 -88
186 -101 202 -41 49 -95 59 -302 58 -104 0 -199 -5 -216 -11z"/>
<path d="M7850 7795 c0 -3 48 -112 106 -242 59 -131 144 -321 189 -423 84
-190 341 -762 445 -995 199 -445 576 -1303 592 -1347 6 -16 13 -29 16 -29 31
-7 703 -5 707 1 5 8 -184 443 -320 740 -24 52 -141 316 -260 585 -119 270
-245 553 -280 630 -74 166 -86 194 -290 655 -86 195 -164 372 -172 392 l-15
38 -359 0 c-197 0 -359 -2 -359 -5z"/>
</g>
</svg>
